<?xml version="1.0" encoding="utf-8"?>
<!-- Generator: Adobe Illustrator 16.0.0, SVG Export Plug-In . SVG Version: 6.00 Build 0)  -->
<!DOCTYPE svg PUBLIC "-//W3C//DTD SVG 1.1//EN" "http://www.w3.org/Graphics/SVG/1.1/DTD/svg11.dtd">
<svg version="1.1" id="Layer_1" xmlns="http://www.w3.org/2000/svg" xmlns:xlink="http://www.w3.org/1999/xlink" x="0px" y="0px"
	 width="74.607px" height="65px" viewBox="0 0 74.607 65" enable-background="new 0 0 74.607 65" xml:space="preserve">
<rect x="-5.272" fill="#1B6F1B" width="65.704" height="73"/>
<rect x="0" y="18.256" fill="#FFFFFF" width="21.583" height="7.481"/>
<rect x="0" y="28.903" fill="#FFFFFF" width="21.583" height="7.482"/>
<rect x="0" y="39.264" fill="#FFFFFF" width="21.583" height="7.193"/>
<rect x="24.461" y="18.256" fill="#FFFFFF" width="7.481" height="28.201"/>
<polygon fill="#FFFFFF" points="48.065,18.256 39.218,18.256 31.845,32.356 39.218,46.457 48.065,46.457 40.692,32.356 "/>
<g>
	<path fill="#FFFFFF" d="M74.607,32.46c0,7.735-6.272,14.009-14.008,14.009c-7.736,0-14.009-6.273-14.009-14.009
		c0-7.736,6.271-14.008,14.009-14.008C68.336,18.452,74.607,24.724,74.607,32.46"/>
</g>
</svg>
